<?xml version="1.0" encoding="UTF-8"?>
<svg id="Calque_1" data-name="Calque 1" xmlns="http://www.w3.org/2000/svg" viewBox="0 0 289.8 289.8">
  <defs>
    <style>
      .cls-1 {
        fill: #fff;
      }
    </style>
  </defs>
  <path class="cls-1" d="M133.76,216.83l-40.44-39.77v-46.65l5.16.08c.34,0,34.43.5,47.36.5,4.2,0,7.58-2.66,9.68-4.88,3.17-3.37,5.57-8,6.87-13h-35.27l-41.22-40.15h56.4c12.08,0,30.18,10.33,31.31,29,.03.43.04.86.06,1.28,18.54,2.13,30.23,15.5,30.23,35.27s-17.81,33.42-29.81,33.42h-40.33v44.89ZM103.49,172.8l20.11,19.77v-30.8h50.5c5.83,0,19.64-9.03,19.64-23.26,0-7.11-2.14-23.01-20.95-25.16-1.55,7.51-4.99,14.55-9.86,19.72-4.98,5.29-10.88,8.08-17.08,8.08-9.94,0-32.24-.29-42.35-.43v32.07ZM131.25,102.95h32.24c0-.12-.01-.25-.02-.37-.84-13.85-15.28-19.44-21.16-19.44h-31.39l20.34,19.81Z"/>
</svg>