<?xml version="1.0" encoding="UTF-8"?>
<svg id="Calque_1" data-name="Calque 1" xmlns="http://www.w3.org/2000/svg" viewBox="0 0 1000 290.3">
  <defs>
    <style>
      .cls-1 {
        fill: #fff;
      }
    </style>
  </defs>
  <rect class="cls-1" x="221.11" y="66.11" width="5.08" height="158.08"/>
  <g id="Logo_1" data-name="Logo 1">
    <g>
      <path class="cls-1" d="M282.06,81.17h24.28c13.52,0,22.97,2.04,29.52,8.43,5.09,4.94,8.43,12.94,8.43,21.81,0,11.05-4.51,19.34-13.23,24.72-8.87,5.38-18.18,5.23-29.08,5.23v44.2h-19.92v-104.4ZM301.98,122.03h9.31c9.02,0,13.52-3.49,13.52-10.61s-4.94-10.76-14.39-10.76h-8.43v21.37Z"/>
      <path class="cls-1" d="M373.66,118.1c3.64-8,9.89-11.78,16.29-11.78,4.07,0,6.54,1.16,8.43,2.04l-5.96,16.58c-1.45-.73-3.64-1.6-5.67-1.6-5.53,0-9.89,6.4-10.32,17.74-.15,4.22-.15,9.01-.15,13.23v31.26h-19.34v-77.21h16.72v9.74Z"/>
      <path class="cls-1" d="M482.71,146.89c0,22.39-17.3,40.71-40.86,40.71s-40.13-17.88-40.13-40.57,18.9-40.71,39.99-40.71c22.54,0,41,17.74,41,40.57ZM421.2,146.89c0,13.09,8.29,22.39,20.79,22.39s21.23-8.72,21.23-22.25-8.58-22.39-21.23-22.39-20.79,9.45-20.79,22.25Z"/>
      <path class="cls-1" d="M513.82,152.13c-12.36-6.25-18.61-13.81-18.61-23.55,0-12.07,10.18-22.25,25.01-22.25,10.03,0,19.19,4.51,25.45,12.8l-11.92,12.07c-4.36-4.36-8.72-7.12-13.38-7.12-3.93,0-6.98,1.6-6.98,4.65s2.76,4.22,6.98,6.4l7.12,3.64c12.8,6.54,19.63,13.23,19.63,24.72,0,13.81-10.9,24.14-27.77,24.14-11.2,0-20.36-4.51-27.04-13.23l11.92-13.09c4.51,5.23,11.05,9.01,16.14,9.01,4.8,0,8.58-2.76,8.58-6.25s-3.2-5.82-8.58-8.58l-6.54-3.34Z"/>
      <path class="cls-1" d="M581.72,116.8c6.98-6.98,14.98-10.47,24.28-10.47,19.92,0,36.5,16.58,36.5,40.71s-17.3,40.57-36.93,40.57c-9.74,0-16.87-3.49-23.85-10.18v36.35h-19.34v-105.42h19.34v8.43ZM580.85,146.75c0,13.96,9.31,23.12,21.23,23.12s20.94-9.74,20.94-22.97-8.14-22.83-20.94-22.83-21.23,9.16-21.23,22.68Z"/>
      <path class="cls-1" d="M730.75,170.59c-8.29,11.78-19.19,17.01-35.48,17.01-24.57,0-40.42-18.03-40.42-40.71,0-21.08,15.27-40.57,40.13-40.57s41,17.45,41,41.88c0,1.74-.15,2.62-.15,4.36h-62.23c1.89,11.49,10.61,17.88,21.66,17.88,8.29,0,13.81-2.33,19.19-7.56l16.28,7.71ZM716.51,137.3c-2.62-9.02-10.91-14.54-21.23-14.54-9.6,0-17.01,4.8-20.79,14.54h42.02Z"/>
      <path class="cls-1" d="M763.61,118.1c3.64-8,9.89-11.78,16.29-11.78,4.07,0,6.54,1.16,8.43,2.04l-5.96,16.58c-1.45-.73-3.64-1.6-5.67-1.6-5.53,0-9.89,6.4-10.32,17.74-.15,4.22-.15,9.01-.15,13.23v31.26h-19.34v-77.21h16.72v9.74Z"/>
      <path class="cls-1" d="M817.99,89.32c0,6.83-5.53,12.36-12.36,12.36s-12.36-6.25-12.36-13.38c0-6.69,5.67-11.78,12.36-11.78s12.36,5.82,12.36,12.8ZM796.04,108.36h19.34v77.21h-19.34v-77.21Z"/>
      <path class="cls-1" d="M889.96,177.43c-6.83,6.69-14.1,10.18-23.85,10.18-19.63,0-36.79-16.87-36.79-40.57s16.29-40.71,36.35-40.71c9.31,0,17.3,3.49,24.28,10.47v-8.43h19.34v77.21h-19.34v-8.14ZM848.82,146.89c0,13.23,8.72,22.97,20.79,22.97s21.23-9.01,21.23-23.12-9.01-22.68-21.23-22.68-20.79,10.18-20.79,22.83Z"/>
    </g>
    <path class="cls-1" d="M947.66,173.21c0,6.83-5.53,12.36-12.36,12.36s-12.36-6.25-12.36-13.38c0-6.69,5.67-11.78,12.36-11.78s12.36,5.82,12.36,12.8Z"/>
  </g>
  <path class="cls-1" d="M100.2,220.6l-40.44-39.77v-46.65l5.16.08c.34,0,34.43.5,47.36.5,4.2,0,7.58-2.66,9.68-4.88,3.17-3.37,5.57-8,6.87-13h-35.27l-41.22-40.15h56.4c12.08,0,30.18,10.33,31.31,29,.03.43.04.86.06,1.28,18.54,2.13,30.23,15.5,30.23,35.27s-17.81,33.42-29.81,33.42h-40.33v44.89ZM69.93,176.57l20.11,19.77v-30.8h50.5c5.83,0,19.64-9.03,19.64-23.26,0-7.11-2.14-23.01-20.95-25.16-1.55,7.51-4.99,14.55-9.86,19.72-4.98,5.29-10.88,8.08-17.08,8.08-9.94,0-32.24-.29-42.35-.43v32.07ZM97.69,106.72h32.24c0-.12-.01-.25-.02-.37-.84-13.85-15.28-19.44-21.16-19.44h-31.39l20.34,19.81Z"/>
</svg>